<?xml version="1.0" encoding="UTF-8" standalone="no"?>
<svg
   width="64pt"
   height="64pt"
   viewBox="0 0 22.577778 22.577778"
   version="1.1"
   id="svg831"
   inkscape:version="1.1.2 (1:1.1+202202050950+0a00cf5339)"
   sodipodi:docname="11 - Delivery Courier.svg"
   inkscape:export-filename="/media/taufikramadhan/Data/Tr Design Studio/Project Design/TR Creative Design/Icon Design/Project Hiring/Icon Icons/019 - Commerce And Shopping/5 - Send/11 - Delivery Courier.png"
   inkscape:export-xdpi="576"
   inkscape:export-ydpi="576"
   xmlns:inkscape="http://www.inkscape.org/namespaces/inkscape"
   xmlns:sodipodi="http://sodipodi.sourceforge.net/DTD/sodipodi-0.dtd"
   xmlns="http://www.w3.org/2000/svg"
   xmlns:svg="http://www.w3.org/2000/svg"
   xmlns:rdf="http://www.w3.org/1999/02/22-rdf-syntax-ns#"
   xmlns:cc="http://creativecommons.org/ns#"
   xmlns:dc="http://purl.org/dc/elements/1.1/">
  <defs
     id="defs825">
    <pattern
       id="EMFhbasepattern"
       patternUnits="userSpaceOnUse"
       width="6"
       height="6"
       x="0"
       y="0" />
    <pattern
       id="EMFhbasepattern-9"
       patternUnits="userSpaceOnUse"
       width="6"
       height="6"
       x="0"
       y="0" />
    <pattern
       id="EMFhbasepattern-0"
       patternUnits="userSpaceOnUse"
       width="6"
       height="6"
       x="0"
       y="0" />
    <pattern
       id="EMFhbasepattern-7"
       patternUnits="userSpaceOnUse"
       width="6"
       height="6"
       x="0"
       y="0" />
    <pattern
       id="EMFhbasepattern-2"
       patternUnits="userSpaceOnUse"
       width="6"
       height="6"
       x="0"
       y="0" />
    <pattern
       id="EMFhbasepattern-98"
       patternUnits="userSpaceOnUse"
       width="6"
       height="6"
       x="0"
       y="0" />
    <pattern
       id="EMFhbasepattern-6"
       patternUnits="userSpaceOnUse"
       width="6"
       height="6"
       x="0"
       y="0" />
    <pattern
       id="EMFhbasepattern-01"
       patternUnits="userSpaceOnUse"
       width="6"
       height="6"
       x="0"
       y="0" />
    <pattern
       id="EMFhbasepattern-07"
       patternUnits="userSpaceOnUse"
       width="6"
       height="6"
       x="0"
       y="0" />
    <pattern
       id="EMFhbasepattern-8"
       patternUnits="userSpaceOnUse"
       width="6"
       height="6"
       x="0"
       y="0" />
    <pattern
       id="EMFhbasepattern-4"
       patternUnits="userSpaceOnUse"
       width="6"
       height="6"
       x="0"
       y="0" />
    <pattern
       id="EMFhbasepattern-40"
       patternUnits="userSpaceOnUse"
       width="6"
       height="6"
       x="0"
       y="0" />
    <pattern
       id="EMFhbasepattern-08"
       patternUnits="userSpaceOnUse"
       width="6"
       height="6"
       x="0"
       y="0" />
    <pattern
       id="EMFhbasepattern-04"
       patternUnits="userSpaceOnUse"
       width="6"
       height="6"
       x="0"
       y="0" />
    <pattern
       id="EMFhbasepattern-014"
       patternUnits="userSpaceOnUse"
       width="6"
       height="6"
       x="0"
       y="0" />
    <pattern
       id="EMFhbasepattern-27"
       patternUnits="userSpaceOnUse"
       width="6"
       height="6"
       x="0"
       y="0" />
    <pattern
       id="EMFhbasepattern-09"
       patternUnits="userSpaceOnUse"
       width="6"
       height="6"
       x="0"
       y="0" />
    <pattern
       id="EMFhbasepattern-5"
       patternUnits="userSpaceOnUse"
       width="6"
       height="6"
       x="0"
       y="0" />
    <pattern
       id="EMFhbasepattern-018"
       patternUnits="userSpaceOnUse"
       width="6"
       height="6"
       x="0"
       y="0" />
  </defs>
  <sodipodi:namedview
     id="base"
     pagecolor="#ffffff"
     bordercolor="#666666"
     borderopacity="1.0"
     inkscape:pageopacity="0.0"
     inkscape:pageshadow="2"
     inkscape:zoom="4.4249417"
     inkscape:cx="41.01749"
     inkscape:cy="44.746352"
     inkscape:document-units="pt"
     inkscape:current-layer="layer1"
     showgrid="false"
     units="pt"
     inkscape:window-width="1366"
     inkscape:window-height="705"
     inkscape:window-x="0"
     inkscape:window-y="31"
     inkscape:window-maximized="1"
     inkscape:pagecheckerboard="true"
     inkscape:showpageshadow="false"
     inkscape:object-paths="true"
     inkscape:snap-intersection-paths="true"
     inkscape:snap-smooth-nodes="true"
     inkscape:snap-midpoints="true"
     showguides="false"
     inkscape:snap-bbox="true"
     inkscape:bbox-nodes="true"
     inkscape:snap-nodes="false"
     inkscape:snap-global="true"
     inkscape:document-rotation="0">
    <inkscape:grid
       type="xygrid"
       id="grid1378" />
    <sodipodi:guide
       position="0.97013831,21.607643"
       orientation="78.000048,0"
       id="guide1380"
       inkscape:locked="false" />
    <sodipodi:guide
       position="0.97013831,0.97013129"
       orientation="0,78.000005"
       id="guide1382"
       inkscape:locked="false" />
    <sodipodi:guide
       position="21.607639,0.97013129"
       orientation="-78.000048,0"
       id="guide1384"
       inkscape:locked="false" />
    <sodipodi:guide
       position="21.607639,21.607643"
       orientation="0,-78.000005"
       id="guide1386"
       inkscape:locked="false" />
  </sodipodi:namedview>
  <metadata
     id="metadata828">
    <rdf:RDF>
      <cc:Work
         rdf:about="">
        <dc:format>image/svg+xml</dc:format>
        <dc:type
           rdf:resource="http://purl.org/dc/dcmitype/StillImage" />
      </cc:Work>
    </rdf:RDF>
  </metadata>
  <g
     inkscape:label="Icon"
     inkscape:groupmode="layer"
     id="layer1"
     transform="translate(0,-274.42223)">
    <path
       id="path17665"
       style="color:#000000;display:inline;fill:#000000;stroke:none;stroke-width:1;stroke-linecap:round;stroke-linejoin:round;stroke-miterlimit:1.5;-inkscape-stroke:none"
       d="m 9.2520533,276.70623 c -0.4182816,0.65187 -0.5166481,1.36741 -0.5311612,1.83925 -0.2179337,0.17652 -0.3514946,0.41054 -0.3722291,0.70474 -9.985e-4,0.3029 0.161805,0.52088 0.3643799,0.66509 -0.4025101,0.12926 -0.6975997,0.51007 -0.6975997,0.95311 0,0.54757 0.4503936,0.99795 0.997962,0.99795 0.047045,0 0.089971,-0.003 0.1280786,-0.005 0.1201491,0.45182 0.3378401,0.95302 0.739205,1.36854 0.1318272,0.13647 0.2841052,0.26188 0.4563962,0.37123 l -0.224296,1.02006 -0.1729384,-0.0864 c -0.128528,-0.0652 -0.2843883,-0.0403 -0.3861801,0.0618 l -0.6579383,0.65795 -2.0641892,0.2607 c -0.863113,0.18644 -1.3504786,0.8336 -1.5752825,1.50377 -0.2248007,0.67018 -0.2359985,1.38907 -0.2359985,1.8828 v 0.80292 H 4.3447681 c -0.4192802,0 -0.7665106,0.34723 -0.7665106,0.76651 v 4.78956 c 0,0.41929 0.3472304,0.76911 0.7665106,0.76911 h 4.7889131 c 0.4192803,0 0.7665106,-0.34982 0.7665106,-0.76911 v -0.56302 h 0.7769162 v 0.56302 c 0,0.41922 0.349877,0.76911 0.769114,0.76911 h 3.12521 c 0.419238,0 0.766511,-0.34989 0.766511,-0.76911 v -0.56302 h 3.330006 c 0.183838,-7.3e-4 0.332287,-0.15033 0.331568,-0.33417 v -3.47693 -1.98552 c 0,-0.49373 -0.0112,-1.21197 -0.235998,-1.88215 -0.224804,-0.67017 -0.714116,-1.31733 -1.577233,-1.50377 l -2.06419,-0.2607 -0.658587,-0.65794 c -0.101339,-0.10077 -0.255721,-0.12568 -0.383583,-0.0618 l -0.172937,0.0864 -0.227547,-1.02525 c 0.168839,-0.10807 0.317612,-0.23178 0.447295,-0.36603 0.401575,-0.41575 0.620297,-0.91664 0.740507,-1.36855 0.0376,0.003 0.07999,0.005 0.126777,0.005 0.547569,0 1.000563,-0.44975 1.000563,-0.99732 0,-0.43992 -0.292317,-0.81864 -0.691096,-0.9505 0.203507,-0.1442 0.366676,-0.36331 0.366676,-0.64787 -0.0083,-0.28518 -0.145315,-0.54666 -0.37123,-0.73237 -0.01535,-0.47191 -0.114537,-1.18316 -0.530513,-1.83144 -0.460486,-0.71765 -1.340289,-1.31457 -2.759808,-1.31457 -1.419516,0 -2.2960735,0.59692 -2.7565597,1.31457 z m 2.7565827,-0.64883 c 1.24342,0 1.846219,0.45662 2.199415,1.00706 0.241683,0.37665 0.352456,0.81506 0.398535,1.1774 -0.118512,-0.02 -0.245156,-0.0305 -0.379032,-0.0299 H 9.7897156 c -0.132549,-4.1e-4 -0.258374,0.0113 -0.377079,0.0332 0.045826,-0.36297 0.1567787,-0.80289 0.3991855,-1.18066 0.3531949,-0.55044 0.9533969,-1.00706 2.1968139,-1.00706 z m 0,2.81835 h 2.220249 c 0.310505,-10e-4 0.513566,0.076 0.628063,0.15993 0.217817,0.21781 0.08712,0.32659 -0.0026,0.3784 -0.151816,0.0754 -0.419038,0.14289 -0.734659,0.18658 -0.631239,0.0874 -1.456068,0.0913 -2.110994,0.0911 -0.654929,2.8e-4 -1.477155,-0.004 -2.1083971,-0.0911 -0.3156183,-0.0437 -0.58284,-0.11121 -0.7346555,-0.18658 -0.2256096,-0.16746 -0.1166906,-0.31338 0.013415,-0.39648 0.1171599,-0.081 0.3085242,-0.14291 0.610734,-0.14185 z m 1.638971,3.89236 c -0.340337,0.35236 -0.832715,0.61178 -1.643548,0.61179 -0.810832,0 -1.30386,-0.25945 -1.644199,-0.61179 -0.330701,-0.34236 -0.5140594,-0.79491 -0.6065771,-1.20405 -0.00419,-0.0164 -0.00962,-0.0325 -0.016244,-0.0481 l 0.00586,-0.004 c -0.026596,-0.0993 -0.1115878,-0.22074 -0.2132467,-0.275 -0.1016527,-0.0542 -0.1869933,-0.0543 -0.2483513,-0.054 -0.1227157,8.1e-4 -0.1969927,0.0169 -0.2678574,0.0169 -0.1877856,0 -0.331569,-0.1438 -0.331569,-0.33157 0,-0.1864 0.1432076,-0.32944 0.3289693,-0.33157 0.012582,8.3e-4 0.024432,10e-4 0.039658,0.005 0.1798832,0.0404 0.3581851,-0.0736 0.3978833,-0.25355 l 0.00783,-0.0878 c 0.1134523,0.0239 0.2316812,0.0442 0.3536749,0.0611 0.705589,0.0978 1.543593,0.0959 2.198765,0.0956 0.655173,2.8e-4 1.49643,10e-4 2.202015,-0.0956 0.117908,-0.0164 0.232017,-0.0357 0.341974,-0.0585 -9.99e-4,0.0264 9.98e-4,0.0536 0.0065,0.0806 0.03749,0.17969 0.213557,0.29457 0.393334,0.25745 0.01567,-0.004 0.03046,-0.004 0.04421,-0.005 0.185767,0.003 0.331568,0.14517 0.331568,0.33157 0,0.18777 -0.146386,0.33157 -0.334168,0.33157 -0.07086,0 -0.145132,-0.016 -0.267858,-0.0169 -0.06136,-3.9e-4 -0.144087,0.003 -0.245752,0.0566 -0.101666,0.0542 -0.18664,0.17311 -0.218456,0.29452 -0.09724,0.43296 -0.281841,0.88967 -0.614385,1.23395 z m -0.5851,1.11825 0.229501,1.04152 -1.282074,0.64104 -1.284021,-0.64169 0.230151,-1.03763 c 0.306973,0.0993 0.65624,0.15604 1.048023,0.15604 0.396488,-10e-6 0.748777,-0.0579 1.05842,-0.15928 z m -3.2064768,1.35099 1.6467998,0.82307 -0.639085,0.85297 -1.3418869,-1.34188 z m 4.3078118,0 0.334169,0.33416 -1.341884,1.34188 -0.638435,-0.85297 z m 0.925797,0.68393 1.958861,0.24771 c 0.614762,0.13431 0.90404,0.52778 1.083781,1.06363 0.180155,0.53707 0.201542,1.19039 0.201542,1.66824 v 1.65395 h -1.553177 v -1.65395 c 6.66e-4,-0.18389 -0.147671,-0.33353 -0.331571,-0.33416 -0.184861,-7.4e-4 -0.334898,0.1493 -0.334169,0.33416 v 5.13089 H 15.33799 v -2.56284 c 0,-0.41924 -0.347288,-0.76651 -0.766511,-0.76651 h -0.623483 c -0.138487,-0.38596 -0.508757,-0.66574 -0.939451,-0.66574 -0.430717,0 -0.80228,0.27975 -0.941397,0.66574 h -0.62088 c -0.419226,0 -0.769113,0.34727 -0.769113,0.76651 v 2.56284 H 9.9002383 v -3.5608 c 0,-0.41929 -0.3472302,-0.76652 -0.7665104,-0.76652 H 7.9049668 v -0.80357 c 6.658e-4,-0.18486 -0.1493091,-0.33489 -0.3341686,-0.33416 -0.1839042,6.3e-4 -0.3322945,0.15027 -0.3315722,0.33416 v 0.80357 H 5.6840988 v -0.80291 c 0,-0.47785 0.023334,-1.13183 0.2034937,-1.6689 0.1797433,-0.53585 0.4690177,-0.92932 1.0837794,-1.06363 l 1.9575642,-0.24705 1.7358649,1.73326 c 0.142862,0.14317 0.379331,0.12692 0.501257,-0.0345 l 0.843876,-1.12408 0.84388,1.12408 c 0.121934,0.16137 0.358395,0.17763 0.501256,0.0345 z m -0.862085,3.15447 c -0.182826,7e-4 -0.330857,0.14874 -0.331569,0.33157 -6.66e-4,0.18385 0.147731,0.33346 0.331569,0.33417 h 0.37123 c 0.183838,-7.2e-4 0.332288,-0.15032 0.331568,-0.33417 -6.65e-4,-0.18283 -0.148743,-0.33085 -0.331568,-0.33157 z m -9.8827392,1.29508 h 1.228761 v 0.9973 c 6.658e-4,0.1839 0.1502744,0.33228 0.3341687,0.33157 h 1.6630537 c 0.1838943,7.1e-4 0.3335195,-0.14767 0.3341686,-0.33157 v -0.9973 h 1.2287611 c 0.061974,0 0.1007695,0.0387 0.1007695,0.10077 v 4.78891 c 0,0.062 -0.038796,0.10341 -0.1007695,0.10341 H 7.9049668 v -1.00056 c -6.658e-4,-0.22765 -0.2239019,-0.3878 -0.4394921,-0.31467 l -0.8672839,0.28801 -0.5435141,-0.27045 c -0.2211358,-0.11046 -0.4807181,0.0499 -0.4811009,0.29711 v 1.00056 h -1.228761 c -0.061974,0 -0.1033725,-0.0415 -0.1033725,-0.10341 v -4.78891 c 0,-0.062 0.041399,-0.10077 0.1033725,-0.10077 z m 1.8945018,0 H 7.239226 v 0.66573 H 6.2393166 Z m 7.1014564,0.66573 c 6.66e-4,0.18385 0.150327,0.33229 0.334166,0.33157 h 0.89654 c 0.06204,0 0.100773,0.0387 0.100773,0.10078 v 3.7916 c 0,0.062 -0.03875,0.10341 -0.100773,0.10341 h -3.125211 c -0.06202,0 -0.103377,-0.0414 -0.103377,-0.10341 v -3.7916 c 0,-0.062 0.04134,-0.10078 0.103377,-0.10078 h 0.896544 c 0.182826,-6.9e-4 0.330859,-0.14874 0.331571,-0.33157 0,-0.1819 0.137963,-0.3254 0.325718,-0.33416 0.19623,0 0.340672,0.14638 0.340672,0.33416 z m 3.439873,0.184 h 1.553177 v 2.81119 h -1.553177 z m -4.77201,0.81332 c -0.183078,7e-4 -0.331216,0.14915 -0.331572,0.33222 -6.65e-4,0.18384 0.147732,0.33345 0.331572,0.33416 h 1.997871 c 0.184857,7.5e-4 0.334894,-0.14931 0.334172,-0.33416 -3.32e-4,-0.18409 -0.150078,-0.33294 -0.334172,-0.33222 z m 0,1.16504 c -0.18384,7.3e-4 -0.332291,0.15033 -0.331572,0.33418 6.66e-4,0.18282 0.148747,0.33085 0.331572,0.33157 h 1.997871 c 0.183841,7.3e-4 0.333456,-0.14773 0.334172,-0.33157 6.66e-4,-0.18487 -0.149315,-0.33489 -0.334172,-0.33418 z m 0.0014,1.16441 c -0.184857,-7.5e-4 -0.334892,0.14931 -0.334168,0.33416 3.32e-4,0.18409 0.150077,0.33294 0.334168,0.33222 0.183079,-7e-4 0.331215,-0.14913 0.331571,-0.33222 6.66e-4,-0.18384 -0.147731,-0.33345 -0.331571,-0.33416 z m 0.999912,0 c -0.184856,-7.5e-4 -0.334895,0.14931 -0.334173,0.33416 3.34e-4,0.18409 0.150078,0.33294 0.334173,0.33222 0.183078,-7.3e-4 0.331213,-0.14915 0.331569,-0.33222 6.65e-4,-0.18384 -0.147732,-0.33345 -0.331569,-0.33416 z m -5.770621,0.46224 v 0.53832 H 6.239346 v -0.46225 l 0.1839874,0.0936 c 0.079473,0.0396 0.1714316,0.0454 0.2555047,0.0169 z"
       sodipodi:nodetypes="scccsscsccccccsscssssssccssssccccssccccccscsscccscsssccccssccccccccccccscccccsscccccccccccsscccscccccscccccccccccccsscccccccsscscssccssccccccsscccccccccsccsccsccccccsssscccccccssssccccccccssssssccccccccccccscccccsscsccssccsscccsccccccccc" />
  </g>
</svg>
