<svg width="24" height="24" viewBox="0 0 24 24" fill="#000" xmlns="http://www.w3.org/2000/svg">
<path d="M12.3037 2.02149C12.1735 2.01678 12.0407 2.02707 11.9072 2.05371L4.30859 3.57325C3.26142 3.78298 2.5 4.7115 2.5 5.7793V18.2207C2.5 19.2882 3.26151 20.2173 4.30859 20.4268L11.9072 21.9463C12.8794 22.1406 13.7783 21.4455 13.9375 20.5H18.75C20.2599 20.5 21.5 19.2599 21.5 17.75V6.75C21.5 5.24012 20.2599 4 18.75 4H14V3.76954C14 2.817 13.215 2.05444 12.3037 2.02149ZM12.2012 3.52442C12.3708 3.49055 12.5 3.59614 12.5 3.76954V20.2305C12.5 20.4039 12.3706 20.5096 12.2012 20.4756C12.2012 20.4753 12.2012 20.4749 12.2012 20.4746L4.60352 18.9551C4.60319 18.9551 4.60286 18.9551 4.60254 18.9551C4.2471 18.8841 4 18.5829 4 18.2207V5.7793C4 5.4171 4.24769 5.11522 4.60352 5.04395L12.2012 3.52442ZM14 5.5H18.75C19.4491 5.5 20 6.05089 20 6.75V17.75C20 18.4491 19.4491 19 18.75 19H14V5.5ZM15.75 7.5C15.6506 7.4986 15.5519 7.51696 15.4597 7.55402C15.3675 7.59108 15.2836 7.6461 15.2128 7.71588C15.142 7.78567 15.0858 7.86882 15.0474 7.96052C15.0091 8.05221 14.9893 8.15061 14.9893 8.25C14.9893 8.3494 15.0091 8.4478 15.0474 8.53949C15.0858 8.63119 15.142 8.71434 15.2128 8.78412C15.2836 8.85391 15.3675 8.90893 15.4597 8.94599C15.5519 8.98305 15.6506 9.00141 15.75 9H17.75C17.8494 9.00141 17.9481 8.98305 18.0403 8.94599C18.1325 8.90893 18.2164 8.85391 18.2872 8.78412C18.358 8.71434 18.4142 8.63119 18.4526 8.53949C18.4909 8.4478 18.5107 8.3494 18.5107 8.25C18.5107 8.15061 18.4909 8.05221 18.4526 7.96052C18.4142 7.86882 18.358 7.78567 18.2872 7.71588C18.2164 7.6461 18.1325 7.59108 18.0403 7.55402C17.9481 7.51696 17.8494 7.4986 17.75 7.5H15.75ZM6.49902 8.57911C6.3546 8.57525 6.20705 8.61323 6.07617 8.69629C5.72717 8.91879 5.62468 9.38195 5.84668 9.73145L7.34082 12.0791L5.84668 14.4268C5.62468 14.7763 5.72717 15.2394 6.07617 15.4619C6.20117 15.5409 6.34052 15.5791 6.47852 15.5791C6.72602 15.5791 6.9693 15.4569 7.1123 15.2324L8.22949 13.4766L9.34668 15.2314C9.49018 15.4559 9.73297 15.5791 9.98047 15.5791C10.1185 15.5791 10.2568 15.5419 10.3818 15.4619C10.7308 15.2394 10.8343 14.7753 10.6123 14.4258L9.11914 12.0791L10.6123 9.73243C10.8343 9.38293 10.7308 8.91879 10.3818 8.69629C10.0333 8.47429 9.56968 8.57676 9.34668 8.92676L8.22949 10.6816L7.1123 8.92579C6.97324 8.70704 6.73972 8.58553 6.49902 8.57911ZM15.75 11.5C15.6506 11.4986 15.5519 11.517 15.4597 11.554C15.3675 11.5911 15.2836 11.6461 15.2128 11.7159C15.142 11.7857 15.0858 11.8688 15.0474 11.9605C15.0091 12.0522 14.9893 12.1506 14.9893 12.25C14.9893 12.3494 15.0091 12.4478 15.0474 12.5395C15.0858 12.6312 15.142 12.7143 15.2128 12.7841C15.2836 12.8539 15.3675 12.9089 15.4597 12.946C15.5519 12.983 15.6506 13.0014 15.75 13H17.75C17.8494 13.0014 17.9481 12.983 18.0403 12.946C18.1325 12.9089 18.2164 12.8539 18.2872 12.7841C18.358 12.7143 18.4142 12.6312 18.4526 12.5395C18.4909 12.4478 18.5107 12.3494 18.5107 12.25C18.5107 12.1506 18.4909 12.0522 18.4526 11.9605C18.4142 11.8688 18.358 11.7857 18.2872 11.7159C18.2164 11.6461 18.1325 11.5911 18.0403 11.554C17.9481 11.517 17.8494 11.4986 17.75 11.5H15.75ZM15.75 15.5C15.6506 15.4986 15.5519 15.517 15.4597 15.554C15.3675 15.5911 15.2836 15.6461 15.2128 15.7159C15.142 15.7857 15.0858 15.8688 15.0474 15.9605C15.0091 16.0522 14.9893 16.1506 14.9893 16.25C14.9893 16.3494 15.0091 16.4478 15.0474 16.5395C15.0858 16.6312 15.142 16.7143 15.2128 16.7841C15.2836 16.8539 15.3675 16.9089 15.4597 16.946C15.5519 16.983 15.6506 17.0014 15.75 17H17.75C17.8494 17.0014 17.9481 16.983 18.0403 16.946C18.1325 16.9089 18.2164 16.8539 18.2872 16.7841C18.358 16.7143 18.4142 16.6312 18.4526 16.5395C18.4909 16.4478 18.5107 16.3494 18.5107 16.25C18.5107 16.1506 18.4909 16.0522 18.4526 15.9605C18.4142 15.8688 18.358 15.7857 18.2872 15.7159C18.2164 15.6461 18.1325 15.5911 18.0403 15.554C17.9481 15.517 17.8494 15.4986 17.75 15.5H15.75Z"/>
</svg>
