<?xml version="1.0" encoding="UTF-8" standalone="no"?>
<svg
   width="64pt"
   height="64pt"
   viewBox="0 0 22.577778 22.577778"
   version="1.1"
   id="svg831"
   inkscape:version="1.1.2 (1:1.1+202202050950+0a00cf5339)"
   sodipodi:docname="15 - 24 Hours.svg"
   inkscape:export-filename="/media/taufikramadhan/Data/Tr Design Studio/Project Design/TR Creative Design/Icon Design/Project Hiring/Icon Icons/019 - Commerce And Shopping/5 - Send/15 - 24 Hours.png"
   inkscape:export-xdpi="576"
   inkscape:export-ydpi="576"
   xmlns:inkscape="http://www.inkscape.org/namespaces/inkscape"
   xmlns:sodipodi="http://sodipodi.sourceforge.net/DTD/sodipodi-0.dtd"
   xmlns="http://www.w3.org/2000/svg"
   xmlns:svg="http://www.w3.org/2000/svg"
   xmlns:rdf="http://www.w3.org/1999/02/22-rdf-syntax-ns#"
   xmlns:cc="http://creativecommons.org/ns#"
   xmlns:dc="http://purl.org/dc/elements/1.1/">
  <defs
     id="defs825">
    <pattern
       id="EMFhbasepattern"
       patternUnits="userSpaceOnUse"
       width="6"
       height="6"
       x="0"
       y="0" />
    <pattern
       id="EMFhbasepattern-9"
       patternUnits="userSpaceOnUse"
       width="6"
       height="6"
       x="0"
       y="0" />
    <pattern
       id="EMFhbasepattern-0"
       patternUnits="userSpaceOnUse"
       width="6"
       height="6"
       x="0"
       y="0" />
    <pattern
       id="EMFhbasepattern-7"
       patternUnits="userSpaceOnUse"
       width="6"
       height="6"
       x="0"
       y="0" />
    <pattern
       id="EMFhbasepattern-2"
       patternUnits="userSpaceOnUse"
       width="6"
       height="6"
       x="0"
       y="0" />
    <pattern
       id="EMFhbasepattern-98"
       patternUnits="userSpaceOnUse"
       width="6"
       height="6"
       x="0"
       y="0" />
    <pattern
       id="EMFhbasepattern-6"
       patternUnits="userSpaceOnUse"
       width="6"
       height="6"
       x="0"
       y="0" />
    <pattern
       id="EMFhbasepattern-01"
       patternUnits="userSpaceOnUse"
       width="6"
       height="6"
       x="0"
       y="0" />
    <pattern
       id="EMFhbasepattern-07"
       patternUnits="userSpaceOnUse"
       width="6"
       height="6"
       x="0"
       y="0" />
    <pattern
       id="EMFhbasepattern-8"
       patternUnits="userSpaceOnUse"
       width="6"
       height="6"
       x="0"
       y="0" />
    <pattern
       id="EMFhbasepattern-4"
       patternUnits="userSpaceOnUse"
       width="6"
       height="6"
       x="0"
       y="0" />
    <pattern
       id="EMFhbasepattern-40"
       patternUnits="userSpaceOnUse"
       width="6"
       height="6"
       x="0"
       y="0" />
    <pattern
       id="EMFhbasepattern-08"
       patternUnits="userSpaceOnUse"
       width="6"
       height="6"
       x="0"
       y="0" />
    <pattern
       id="EMFhbasepattern-04"
       patternUnits="userSpaceOnUse"
       width="6"
       height="6"
       x="0"
       y="0" />
    <pattern
       id="EMFhbasepattern-014"
       patternUnits="userSpaceOnUse"
       width="6"
       height="6"
       x="0"
       y="0" />
    <pattern
       id="EMFhbasepattern-27"
       patternUnits="userSpaceOnUse"
       width="6"
       height="6"
       x="0"
       y="0" />
    <pattern
       id="EMFhbasepattern-09"
       patternUnits="userSpaceOnUse"
       width="6"
       height="6"
       x="0"
       y="0" />
    <pattern
       id="EMFhbasepattern-5"
       patternUnits="userSpaceOnUse"
       width="6"
       height="6"
       x="0"
       y="0" />
    <pattern
       id="EMFhbasepattern-018"
       patternUnits="userSpaceOnUse"
       width="6"
       height="6"
       x="0"
       y="0" />
  </defs>
  <sodipodi:namedview
     id="base"
     pagecolor="#ffffff"
     bordercolor="#666666"
     borderopacity="1.0"
     inkscape:pageopacity="0.0"
     inkscape:pageshadow="2"
     inkscape:zoom="4.4249417"
     inkscape:cx="41.01749"
     inkscape:cy="44.746352"
     inkscape:document-units="pt"
     inkscape:current-layer="layer1"
     showgrid="false"
     units="pt"
     inkscape:window-width="1366"
     inkscape:window-height="705"
     inkscape:window-x="0"
     inkscape:window-y="31"
     inkscape:window-maximized="1"
     inkscape:pagecheckerboard="true"
     inkscape:showpageshadow="false"
     inkscape:object-paths="true"
     inkscape:snap-intersection-paths="true"
     inkscape:snap-smooth-nodes="true"
     inkscape:snap-midpoints="true"
     showguides="false"
     inkscape:snap-bbox="true"
     inkscape:bbox-nodes="true"
     inkscape:snap-nodes="false"
     inkscape:snap-global="true"
     inkscape:document-rotation="0">
    <inkscape:grid
       type="xygrid"
       id="grid1378" />
    <sodipodi:guide
       position="0.97013831,21.607643"
       orientation="78.000048,0"
       id="guide1380"
       inkscape:locked="false" />
    <sodipodi:guide
       position="0.97013831,0.97013129"
       orientation="0,78.000005"
       id="guide1382"
       inkscape:locked="false" />
    <sodipodi:guide
       position="21.607639,0.97013129"
       orientation="-78.000048,0"
       id="guide1384"
       inkscape:locked="false" />
    <sodipodi:guide
       position="21.607639,21.607643"
       orientation="0,-78.000005"
       id="guide1386"
       inkscape:locked="false" />
  </sodipodi:namedview>
  <metadata
     id="metadata828">
    <rdf:RDF>
      <cc:Work
         rdf:about="">
        <dc:format>image/svg+xml</dc:format>
        <dc:type
           rdf:resource="http://purl.org/dc/dcmitype/StillImage" />
      </cc:Work>
    </rdf:RDF>
  </metadata>
  <g
     inkscape:label="Icon"
     inkscape:groupmode="layer"
     id="layer1"
     transform="translate(0,-274.42223)">
    <path
       id="circle74376"
       style="color:#000000;display:inline;fill:#000000;stroke-width:1;stroke-linecap:round;stroke-linejoin:round;stroke-miterlimit:1.5;-inkscape-stroke:none"
       d="m 18.323028,295.5985 c 0.225371,-0.0157 0.393476,-0.14307 0.491616,-0.33685 0.09847,-0.19443 0.06897,-0.48795 -0.100796,-0.68345 l -0.697756,-0.69776 c 1.671095,-1.70135 2.703238,-4.03514 2.703236,-6.6069 2e-6,-2.56926 -1.029716,-4.89943 -2.698683,-6.60104 l 0.717915,-1.11653 c 0.307758,-0.53305 0.07263,-1.15155 -0.375865,-1.41048 l -1.216684,-0.70035 c -0.570726,-0.32951 -1.109674,-0.13917 -1.408518,0.37845 l -0.499419,0.8857 c -1.201604,-0.55556 -2.539411,-0.86618 -3.949179,-0.86618 -0.360584,0 -0.716358,0.021 -1.066467,0.0605 v -1.47615 c 0,-0.1886 0.14312,-0.36871 0.366111,-0.36871 h 1.400715 c 0.193088,0 0.36676,0.16801 0.36676,0.36871 v 0.34921 c 6.32e-4,0.18298 0.14866,0.33102 0.331645,0.33164 0.183945,6.6e-4 0.333614,-0.14769 0.334247,-0.33164 v -0.34921 c 0,-0.57133 -0.470599,-1.03461 -1.032652,-1.03461 h -1.400715 c -0.587705,0 -1.0320032,0.48959 -1.0320032,1.03461 v 1.57564 c -0.7767267,0.14452 -1.5200208,0.38428 -2.2174722,0.70687 l -0.4987689,-0.8857 c -0.2713065,-0.46992 -0.8981403,-0.66212 -1.4104686,-0.37911 l -1.2140828,0.70036 c -0.4485039,0.25894 -0.6836212,0.87806 -0.3758648,1.41111 l 0.7172647,1.11655 c -1.6685881,1.70154 -2.6986848,4.03145 -2.6986837,6.60039 -1.36e-5,10e-4 -1.36e-5,0.004 0,0.005 0.052439,3.42055 1.5866573,5.62351 3.1018607,6.93855 1.5152031,1.31503 3.0303294,1.77462 3.0303294,1.77462 0.331949,0.10307 0.5799352,-0.30753 0.3342455,-0.55338 0,0 -2.3575543,-2.43146 -3.2566278,-5.0137 -0.059685,-0.17512 -0.2506917,-0.26799 -0.4252867,-0.2068 -0.1738237,0.061 -0.2650396,0.25164 -0.2035392,0.4253 0.5151421,1.47954 1.391196,2.79219 2.1478922,3.77035 -0.4858828,-0.25837 -0.5906729,-0.1759 -1.1919728,-0.69776 -1.4070882,-1.22119 -2.8199504,-3.21702 -2.8710093,-6.44173 v -0.003 c -1.46e-5,-0.001 1.47e-5,-0.001 0,-0.003 0.00271,-4.84234 3.9214374,-8.75922 8.7645435,-8.75922 4.844784,0 8.764547,3.91913 8.764545,8.7639 1e-6,2.42241 -0.979477,4.61197 -2.566026,6.19851 l -0.405127,0.39733 0.291976,0.31084 0.767337,0.76669 -3.35027,0.3739 0.371314,-3.35027 1.201726,1.20174 c 0.130142,0.13072 0.341966,0.13072 0.472108,0 0.130715,-0.13014 0.130715,-0.34132 0,-0.47146 l -0.05658,-0.0566 c 1.3545,-1.38473 2.189512,-3.28205 2.18951,-5.3707 5e-6,-4.23836 -3.442147,-7.68053 -7.680518,-7.68053 -4.2383697,0 -7.680521,3.44217 -7.6805185,7.68053 -7.192e-4,0.18388 0.1477633,0.33352 0.3316454,0.33424 0.1848989,6.7e-4 0.334971,-0.14935 0.3342468,-0.33424 -2.4e-6,-3.87849 3.1361307,-7.01398 7.0146263,-7.01398 3.878496,0 7.014629,3.13549 7.014626,7.01398 3e-6,1.90813 -0.760277,3.63581 -1.994424,4.90054 l -0.740674,-0.73937 c -0.157758,-0.18718 -0.352424,-0.225 -0.563149,-0.18663 -0.210722,0.0384 -0.435911,0.23965 -0.486412,0.50136 l -0.435042,3.91018 c -0.02403,0.21176 0.154193,0.39133 0.366112,0.3687 z M 5.9643615,277.97577 c 0.1315437,-0.004 0.2297424,0.061 0.2984812,0.18012 l 0.4812108,0.85514 c -0.609229,0.33608 -1.1770058,0.7378 -1.694643,1.19522 l -0.6346784,-0.98388 c -0.1078141,-0.18674 0.022327,-0.43357 0.1352594,-0.49877 l 1.2140823,-0.70036 c 0.073824,-0.0303 0.1404953,-0.0461 0.2002877,-0.0474 z m 10.6601255,0.0247 c 0.06263,6.7e-4 0.126087,0.0126 0.189883,0.0221 l 1.214083,0.70035 c 0.112927,0.0652 0.243072,0.31268 0.135259,0.49943 l -0.634678,0.98453 C 17.011253,279.74926 16.44318,279.3472 15.83374,279.011 l 0.483812,-0.85772 c 0.09984,-0.12307 0.20255,-0.15371 0.306935,-0.15282 z m -5.33559,2.99132 c -0.184898,-6.5e-4 -0.334969,0.14936 -0.334246,0.33425 v 0.3492 c -7.33e-4,0.1849 0.149347,0.33498 0.334246,0.33425 0.183883,-6.6e-4 0.332366,-0.15037 0.331645,-0.33425 v -0.3492 c 7.33e-4,-0.18387 -0.147763,-0.33353 -0.331645,-0.33425 z m -3.7358888,1.54834 c -0.088389,1.8e-4 -0.17308,0.0355 -0.2354024,0.0982 -0.1291248,0.12988 -0.1291248,0.33962 0,0.4695 l 0.2477584,0.24842 c 0.1298672,0.12913 0.3396376,0.12913 0.4695061,0 0.1308588,-0.13017 0.1308588,-0.34194 0,-0.47211 l -0.2458079,-0.24581 c -0.062479,-0.0628 -0.1474367,-0.0982 -0.2360542,-0.0982 z m 7.4717768,0 c -0.08861,1e-5 -0.173572,0.0354 -0.236053,0.0982 l -0.245808,0.24581 c -0.13086,0.13017 -0.13086,0.34194 0,0.47211 0.129867,0.12913 0.339637,0.12913 0.469506,0 l 0.248409,-0.24842 c 0.129123,-0.12988 0.129123,-0.33962 0,-0.4695 -0.06248,-0.0628 -0.147438,-0.0982 -0.236054,-0.0982 z m -6.0977242,1.98597 c -0.1848986,-6.7e-4 -0.3349703,0.14934 -0.3342455,0.33425 7.324e-4,0.18386 0.1503649,0.33235 0.3342455,0.33163 h 1.4156712 v 1.08403 H 8.9270608 c -0.1848911,-6.6e-4 -0.3349515,0.14936 -0.3342455,0.33425 v 1.74992 c 7.324e-4,0.18387 0.1503712,0.33235 0.3342455,0.33164 h 1.7499182 c 0.182867,-6.6e-4 0.330933,-0.14877 0.331645,-0.33164 7.33e-4,-0.18388 -0.147765,-0.33354 -0.331645,-0.33425 H 9.2587065 v -1.08402 h 1.4182725 c 0.182858,-6.7e-4 0.330913,-0.14879 0.331645,-0.33165 v -1.74991 c 7e-4,-0.18389 -0.147771,-0.33351 -0.331645,-0.33425 z m 2.9737552,0 c -0.183882,6.7e-4 -0.332365,0.15035 -0.331646,0.33425 v 1.74991 c 7.33e-4,0.18286 0.148787,0.33092 0.331646,0.33165 h 1.415671 v 1.41827 c 7.32e-4,0.18388 0.150362,0.33237 0.334245,0.33164 0.183122,-3.2e-4 0.331582,-0.14852 0.332296,-0.33164 v -3.49983 c 7.33e-4,-0.18415 -0.148159,-0.33389 -0.332296,-0.33425 -0.184899,-6.7e-4 -0.334969,0.14934 -0.334245,0.33425 v 1.41566 h -1.081424 v -1.41566 c 7.32e-4,-0.18491 -0.149348,-0.33497 -0.334247,-0.33425 z m -5.8961368,1.74991 c -0.183882,6.7e-4 -0.3323657,0.15038 -0.3316455,0.33425 6.992e-4,0.18287 0.1487796,0.33093 0.3316455,0.33165 h 0.3492032 c 0.183881,6.7e-4 0.3335291,-0.14776 0.3342469,-0.33165 7.325e-4,-0.18489 -0.1493477,-0.33496 -0.3342469,-0.33425 z m 10.1483518,0 c -0.184899,-6.6e-4 -0.334971,0.14936 -0.334247,0.33425 7.32e-4,0.18389 0.150366,0.33237 0.334247,0.33165 h 0.349202 c 0.183881,6.7e-4 0.33353,-0.14776 0.334247,-0.33165 7.32e-4,-0.18489 -0.149348,-0.33496 -0.334247,-0.33425 z m -11.986708,2.08741 c -0.043186,-0.008 -0.087383,-0.006 -0.130057,0.004 -0.1793324,0.0419 -0.2906323,0.22132 -0.248409,0.40057 0.039517,0.17171 0.084831,0.34211 0.1352593,0.51178 0.052934,0.17522 0.2373762,0.27484 0.4129313,0.22305 0.1754758,-0.0526 0.2754413,-0.23719 0.2236978,-0.41294 -0.046698,-0.15712 -0.086698,-0.31413 -0.1229033,-0.47145 -0.029936,-0.13208 -0.1368941,-0.23286 -0.2705187,-0.25491 z m 3.6832158,1.3526 c -0.087973,10e-6 -0.1723777,0.0349 -0.2347531,0.0969 l -0.2484089,0.24777 c -0.1291248,0.12987 -0.1291248,0.33962 0,0.4695 0.1301654,0.13084 0.3419417,0.13084 0.4721071,0 l 0.245808,-0.2458 c 0.1304221,-0.13011 0.1304221,-0.34138 0,-0.47147 -0.062378,-0.062 -0.1467735,-0.0969 -0.2347531,-0.0969 z m 6.8780662,6.6e-4 c -0.08743,1.8e-4 -0.171291,0.0347 -0.233452,0.0963 -0.130422,0.13008 -0.130422,0.34136 0,0.47145 l 0.245808,0.2458 c 0.130092,0.13042 0.341365,0.13042 0.471456,0 0.129125,-0.12985 0.129125,-0.33963 0,-0.4695 l -0.247758,-0.24775 c -0.06281,-0.0622 -0.147719,-0.0968 -0.236054,-0.0963 z m -3.438708,1.42347 c -0.184899,-6.7e-4 -0.334971,0.14934 -0.334246,0.33424 v 0.34856 c -7.33e-4,0.1849 0.149347,0.33496 0.334246,0.33425 0.183883,-6.7e-4 0.332366,-0.15037 0.331645,-0.33425 v -0.34856 c 7.21e-4,-0.18389 -0.147762,-0.33352 -0.331645,-0.33424 z m -3.4998346,1.40006 c -0.1828676,6.7e-4 -0.3309335,0.14878 -0.3316457,0.33165 -7.324e-4,0.18388 0.1477651,0.33353 0.3316457,0.33425 h 1.4013645 c 0.1838806,-6.7e-4 0.3323642,-0.15037 0.3316457,-0.33425 -6.997e-4,-0.18287 -0.1487781,-0.33093 -0.3316457,-0.33165 z m 1.0495595,1.40071 c -0.1828663,6.7e-4 -0.3309334,0.14878 -0.3316457,0.33165 6.997e-4,0.18287 0.1487807,0.33093 0.3316457,0.33165 H 10.58854 c 0.183882,6.6e-4 0.333529,-0.14776 0.334247,-0.33165 -7.33e-4,-0.18387 -0.150364,-0.33236 -0.334247,-0.33165 z m 0.7003583,1.39877 c -0.1828676,6.6e-4 -0.3309348,0.14878 -0.3316457,0.33164 -7.324e-4,0.18389 0.1477651,0.33354 0.3316457,0.33425 H 12.68766 c 0.184897,6.7e-4 0.334969,-0.14934 0.334247,-0.33425 -7.32e-4,-0.18388 -0.150364,-0.33236 -0.334247,-0.33164 z"
       sodipodi:nodetypes="csccsccccccscsssscccsssscccccccccsccccccscccssccccccccccsscscsscccccccccccccccsccccccsscccccccccccccccccccccccccccccccccccccccccccccccccccccccccccccccccccccccsccccccssccccccccccccccccccccccccsccsccccccccccsccscc" />
  </g>
</svg>
